<?xml version="1.0" encoding="UTF-8"?>
<svg version="1.1" xmlns="http://www.w3.org/2000/svg" width="500" height="500">
<path d="M0 0 C1.95066203 2.33042281 3.36042889 4.90114314 4.8125 7.5625 C5.23901855 8.31523193 5.66553711 9.06796387 6.10498047 9.84350586 C10.34860361 17.41937529 14.23161397 25.17902005 18 33 C18.61818604 32.96447021 19.23637207 32.92894043 19.87329102 32.89233398 C32.01264853 32.2174871 43.88816337 31.7562885 56 33 C56.4846875 32.01902344 56.969375 31.03804687 57.46875 30.02734375 C61.34622831 22.21093276 65.29903055 14.44999639 69.47265625 6.78686523 C70.86908784 4.20722751 72.06975437 1.79073688 73 -1 C80.29990374 -1.41935617 86.14530203 -0.47447612 93 2 C93.99902344 2.3403125 94.99804688 2.680625 96.02734375 3.03125 C104.61041611 6.11075233 112.22785612 10.30408698 120 15 C118.11462489 24.20741392 115.37368272 33.14289833 112.65820312 42.13476562 C112.12549805 43.94944336 112.12549805 43.94944336 111.58203125 45.80078125 C111.25436768 46.89559814 110.9267041 47.99041504 110.58911133 49.1184082 C110.00859701 51.9579484 109.88407858 53.36001067 111 56 C113.22161615 58.1428352 113.22161615 58.1428352 116 60.1875 C121.32604521 64.39960111 126.6973862 68.70937859 131 74 C131 74.99 131 75.98 131 77 C129.2421875 78.6484375 129.2421875 78.6484375 126.875 80.375 C124.02405368 82.48963893 121.23930367 84.60609035 118.5625 86.9375 C116 89 116 89 114 89 C114 89.66 114 90.32 114 91 C112.3046875 92.5234375 112.3046875 92.5234375 109.875 94.375 C104.75257188 98.36479422 99.82118011 102.53850941 94.91162109 106.78662109 C93.79343476 107.75239994 92.67245449 108.71495601 91.54833984 109.67382812 C90.1306075 110.88813309 88.73036499 112.12278118 87.33203125 113.359375 C85 115 85 115 81 115 C79.61304268 113.34241687 78.22970666 111.68163507 76.8671875 110.00390625 C67.82320803 100.29771071 54.14645375 95.94707647 41.21826172 95.40771484 C24.04404935 95.20101963 10.74435256 100.52435328 -2.1171875 111.8671875 C-12.86849334 123.00076199 -17.54155644 138.89884124 -17.49243164 154.01660156 C-17.09118253 165.99157516 -13.05327461 177.30393515 -6 187 C-5.26716797 188.04027344 -5.26716797 188.04027344 -4.51953125 189.1015625 C3.44804833 199.29219515 17.23527664 206.35882128 30 208 C41.23311905 208.77225184 51.51028839 208.48786631 62 204 C63.74300973 202.25699027 63.17006086 199.84304811 63.20532227 197.47045898 C63.22526749 196.28931015 63.24521271 195.10816132 63.26576233 193.89122009 C63.28247482 192.6058284 63.29918732 191.32043671 63.31640625 189.99609375 C63.33718735 188.68794205 63.35796844 187.37979034 63.37937927 186.03199768 C63.434663 182.54844553 63.48404431 179.0648334 63.53222656 175.58117676 C63.58239574 172.0286727 63.63810567 168.4762561 63.69335938 164.92382812 C63.80101791 157.94929454 63.90244567 150.97468202 64 144 C76.22139396 143.82322805 88.4428817 143.65725931 100.66460991 143.50522423 C106.33915836 143.43429177 112.01360566 143.35958631 117.68798828 143.27636719 C123.1602836 143.19624884 128.63262402 143.12589887 134.10513687 143.06242752 C136.19684633 143.03642992 138.28851448 143.00686475 140.38012314 142.97373581 C143.30140211 142.92806495 146.2225684 142.89488539 149.14404297 142.86474609 C150.01582184 142.8482048 150.88760071 142.83166351 151.78579712 142.81462097 C153.85806678 142.79983031 155.93060106 142.8899621 158 143 C160 145 160 145 160.23046875 148.16015625 C160.21628906 149.44792969 160.20210938 150.73570312 160.1875 152.0625 C160.18032959 152.73627686 160.17315918 153.41005371 160.16577148 154.10424805 C159.95561559 167.08876882 159.95561559 167.08876882 158 171 C158.67289062 171.25523437 159.34578125 171.51046875 160.0390625 171.7734375 C163.5662677 173.23457527 166.96705392 174.90941273 170.375 176.625 C171.06529297 176.97111328 171.75558594 177.31722656 172.46679688 177.67382812 C179.71067418 181.32537391 186.86312701 185.14444792 194 189 C194 194.47750001 192.27670114 199.01935913 190.5625 204.1875 C190.20994141 205.25291016 189.85738281 206.31832031 189.49414062 207.41601562 C186.26066547 216.84462531 182.03596586 225.42020631 177 234 C169.1646875 233.46653191 162.20279526 231.40575558 154.75 229 C152.4538049 228.2686951 150.15695334 227.53944742 147.859375 226.8125 C146.35068848 226.32716797 146.35068848 226.32716797 144.81152344 225.83203125 C142.21771375 225.06442936 139.65995866 224.48207946 137 224 C136.154375 224.99 135.30875 225.98 134.4375 227 C133.89480469 227.63035156 133.35210937 228.26070312 132.79296875 228.91015625 C131.55864988 230.34885035 130.33253049 231.79460656 129.11328125 233.24609375 C128.49839844 233.96925781 127.88351562 234.69242188 127.25 235.4375 C126.67765625 236.11683594 126.1053125 236.79617188 125.515625 237.49609375 C124 239 124 239 122 239 C122 239.66 122 240.32 122 241 C120.03125 242.7265625 120.03125 242.7265625 117.5 244.625 C116.6646875 245.25664062 115.829375 245.88828125 114.96875 246.5390625 C113.99421875 247.26222656 113.99421875 247.26222656 113 248 C113.63627726 252.42294374 114.69428998 256.50376496 116.06640625 260.75390625 C116.47346938 262.03315156 116.88036544 263.31245004 117.28710938 264.59179688 C117.92536429 266.58280788 118.56590905 268.57303322 119.2097168 270.56225586 C119.83485453 272.49920494 120.45109243 274.43881789 121.06640625 276.37890625 C121.43709229 277.5294751 121.80777832 278.68004395 122.18969727 279.86547852 C122.94019871 282.76866863 123.28139401 285.02540583 123 288 C117.33041003 294.42876583 106.7039976 297.16380367 98.91455078 300.22900391 C96.55181675 301.18048492 94.24433904 302.23330052 91.9375 303.3125 C87.97978011 305.08002539 84.29990126 306.33277394 80 307 C77.68085392 305.1807191 76.25315639 302.99944879 74.765625 300.48046875 C74.35948975 299.79404297 73.95335449 299.10761719 73.53491211 298.40039062 C73.11089111 297.67013672 72.68687012 296.93988281 72.25 296.1875 C71.81115479 295.43791016 71.37230957 294.68832031 70.92016602 293.91601562 C67.44592982 287.91707906 64.29138433 281.80333696 61.27734375 275.5625 C60.23228147 273.12648641 60.23228147 273.12648641 59 272 C57.45355639 271.99547548 55.90681104 272.06125475 54.36328125 272.15625 C52.91707397 272.23661499 52.91707397 272.23661499 51.44165039 272.31860352 C49.89272095 272.40839478 49.89272095 272.40839478 48.3125 272.5 C39.42164496 272.96228313 30.86166228 272.99828085 22 272 C21.5153125 272.98097656 21.030625 273.96195312 20.53125 274.97265625 C16.68289333 282.73037776 12.76474388 290.43560459 8.61523438 298.03735352 C6.85155475 301.29264618 5.29390651 304.52997801 4 308 C-9.24855183 304.75615355 -21.03664285 300.57650471 -33 294 C-33.91652344 293.51015625 -34.83304687 293.0203125 -35.77734375 292.515625 C-38 291.25 -38 291.25 -41 289 C-41 285.79819775 -40.797522 283.67724266 -40.046875 280.65625 C-39.84151123 279.82746338 -39.63614746 278.99867676 -39.42456055 278.14477539 C-39.09065308 276.83561157 -39.09065308 276.83561157 -38.75 275.5 C-38.52546143 274.60595459 -38.30092285 273.71190918 -38.06958008 272.79077148 C-36.55716823 266.87638045 -34.83158949 261.13300104 -32.69921875 255.41015625 C-31.91762356 252.71605438 -31.59373975 250.78448036 -32 248 C-33.61169566 246.2225694 -33.61169566 246.2225694 -35.875 244.8125 C-42.6442042 239.92839064 -49.35035359 234.00446733 -54 227 C-54 226.34 -54 225.68 -54 225 C-64.11631535 227.70718298 -74.00907605 230.95505068 -83.91015625 234.35742188 C-84.91304687 234.69837891 -85.9159375 235.03933594 -86.94921875 235.390625 C-88.30019653 235.8551709 -88.30019653 235.8551709 -89.6784668 236.32910156 C-92 237 -92 237 -95 237 C-102.15055554 224.06062199 -108.58826871 211.14828518 -113 197 C-113.22187988 196.30310059 -113.44375977 195.60620117 -113.67236328 194.88818359 C-113.7804834 194.26508301 -113.88860352 193.64198242 -114 193 C-111.19516768 189.26263322 -107.3380343 187.37754011 -103.25 185.3125 C-101.9196692 184.62283419 -100.59027564 183.93135813 -99.26171875 183.23828125 C-98.224104 182.6980835 -98.224104 182.6980835 -97.16552734 182.14697266 C-93.42621311 180.16644298 -89.7450064 178.08374152 -86.0625 176 C-85.00627441 175.40312378 -85.00627441 175.40312378 -83.92871094 174.79418945 C-82.28500073 173.86421711 -80.64237267 172.93233245 -79 172 C-79.2475 170.1128125 -79.2475 170.1128125 -79.5 168.1875 C-80.02827217 162.91232506 -80.11266967 157.67139109 -80.125 152.375 C-80.12951172 151.57602295 -80.13402344 150.7770459 -80.13867188 149.95385742 C-80.1261268 144.8840799 -79.72348187 140.01843774 -79 135 C-80.19882813 134.65195312 -80.19882813 134.65195312 -81.421875 134.296875 C-88.5482648 131.71394769 -95.10831325 127.80713364 -101.75830078 124.19824219 C-103.64128284 123.19174296 -105.55042547 122.23440095 -107.46484375 121.2890625 C-108.36332031 120.82242188 -109.26179688 120.35578125 -110.1875 119.875 C-111.32251953 119.31425781 -111.32251953 119.31425781 -112.48046875 118.7421875 C-114.56484607 116.35238728 -114.44173515 114.25607926 -114.28637695 111.17626953 C-113.8157545 107.59985986 -112.76131922 104.36896608 -111.5 101 C-111.23735352 100.27594971 -110.97470703 99.55189941 -110.70410156 98.8059082 C-107.74328118 90.90154465 -103.92800054 83.45789293 -100 76 C-99.33068097 74.66799615 -98.66339492 73.3349642 -98 72 C-89.19339712 72.3103477 -81.18523578 74.86925421 -72.875 77.5625 C-71.52372364 77.99243683 -70.17216259 78.42147995 -68.8203125 78.84960938 C-65.54353274 79.88946975 -62.27075694 80.94132609 -59 82 C-54.93677385 77.96436863 -51.07275029 73.78950505 -47.25488281 69.5246582 C-43.89144285 65.82453358 -40.369594 62.6770572 -36.265625 59.79296875 C-34.65943505 57.92946044 -34.65943505 57.92946044 -35.29394531 54.82055664 C-35.97791818 51.11948769 -36.90017944 47.66583295 -38.03125 44.078125 C-38.22722778 43.45145935 -38.42320557 42.8247937 -38.62512207 42.17913818 C-39.2450282 40.20112793 -39.87239488 38.22557916 -40.5 36.25 C-40.92106381 34.91031044 -41.34164097 33.57046782 -41.76171875 32.23046875 C-43.8423804 25.60283571 -43.8423804 25.60283571 -46 19 C-42.84216119 15.47387725 -39.34194477 13.28707273 -35.1875 11.125 C-34.20813477 10.60945557 -34.20813477 10.60945557 -33.20898438 10.08349609 C-7.18092861 -3.33527428 -7.18092861 -3.33527428 0 0 Z " fill="#FF5D0C" transform="translate(210,97)"/>
<path d="M0 0 C3.875 0.875 3.875 0.875 5 2 C5.87793427 22.24413146 5.87793427 22.24413146 3 28 C4.32 28.66 5.64 29.32 7 30 C5.35 30 3.7 30 2 30 C1.9906543 31.03930664 1.98130859 32.07861328 1.97167969 33.14941406 C1.93175877 37.01133838 1.86599522 40.8724678 1.79248047 44.73388672 C1.76428282 46.40403011 1.74306221 48.07430665 1.72900391 49.74462891 C1.70755663 52.14815372 1.66090155 54.55007983 1.609375 56.953125 C1.60814636 57.69806213 1.60691772 58.44299927 1.60565186 59.21051025 C1.50697358 62.71565517 1.2795842 64.64334818 -0.91308594 67.44042969 C-4.67250383 70.24987769 -7.67126799 70.15966692 -12.21606445 70.17700195 C-12.95934998 70.18357315 -13.7026355 70.19014435 -14.46844482 70.19691467 C-16.93339128 70.216659 -19.39827678 70.22831283 -21.86328125 70.23828125 C-22.70471365 70.24235678 -23.54614605 70.2464323 -24.4130764 70.25063133 C-28.86677175 70.27149707 -33.32043625 70.2857965 -37.77416992 70.29516602 C-42.37443399 70.30623069 -46.97421437 70.34062952 -51.57430744 70.38033772 C-55.11137288 70.40648354 -58.64832273 70.41485603 -62.1854763 70.41844749 C-63.88114882 70.42331886 -65.57681599 70.43494855 -67.27239418 70.45348549 C-69.64723649 70.47783423 -72.02082303 70.47692027 -74.39575195 70.4699707 C-75.09464035 70.48278076 -75.79352875 70.49559082 -76.51359558 70.50878906 C-81.26929054 70.45813091 -83.65794281 69.35549491 -87 66 C-88.27034403 63.45931195 -88.14775949 61.64788391 -88.17700195 58.8034668 C-88.18983719 57.71861496 -88.20267242 56.63376312 -88.21589661 55.51603699 C-88.22328354 54.33898697 -88.23067047 53.16193695 -88.23828125 51.94921875 C-88.246353 50.74312454 -88.25442474 49.53703033 -88.26274109 48.29438782 C-88.276591 45.73802126 -88.28730907 43.18163614 -88.29516602 40.62524414 C-88.31238335 36.71399946 -88.35626376 32.80359878 -88.40039062 28.89257812 C-88.4105168 26.41146456 -88.41903314 23.9303438 -88.42578125 21.44921875 C-88.45204338 19.69275276 -88.45204338 19.69275276 -88.47883606 17.90080261 C-88.45710675 9.77295583 -88.45710675 9.77295583 -86.09838867 5.78442383 C-82.40893573 2.64699374 -79.41776074 2.85175391 -74.76806641 2.85473633 C-74.02317459 2.85137772 -73.27828278 2.8480191 -72.51081848 2.84455872 C-70.04104966 2.83503684 -67.57134855 2.83310492 -65.1015625 2.83203125 C-63.38764416 2.82881928 -61.6737261 2.82545525 -59.95980835 2.82194519 C-56.36349858 2.81595065 -52.76721285 2.8141056 -49.17089844 2.81469727 C-44.56172244 2.81479885 -39.95270063 2.80115199 -35.34356117 2.78392506 C-31.80224906 2.77280775 -28.26097423 2.77077798 -24.71964645 2.77130699 C-23.02038416 2.77012626 -21.32112091 2.76569929 -19.62187576 2.75797462 C-17.2447149 2.74818114 -14.86788887 2.75105027 -12.49072266 2.75708008 C-11.78823898 2.75146057 -11.08575531 2.74584106 -10.36198425 2.74005127 C-6.75722134 2.7632952 -3.99010768 2.88429958 -1 5 C1.52775351 8.79163027 1.22443035 11.80874031 1.125 16.1875 C1.11597656 16.93708984 1.10695313 17.68667969 1.09765625 18.45898438 C1.07412578 20.30612654 1.03825561 22.15310412 1 24 C1.66 24 2.32 24 3 24 C2.88576707 20.93675381 2.75902148 17.87489086 2.625 14.8125 C2.5940625 13.94818359 2.563125 13.08386719 2.53125 12.19335938 C2.32654611 7.74104978 2.06277067 4.05007413 0 0 Z " fill="#FFF2EE" transform="translate(365,240)"/>
<path d="M0 0 C24.75 0 49.5 0 75 0 C72.61668812 3.97218647 70.9706086 6.23265226 67.75 9.3125 C64.33621624 12.64956952 61.13872061 16.06316946 58.02734375 19.6796875 C55.31294466 22.7863408 52.53772217 25.83415183 49.75 28.875 C49.23010498 29.44702148 48.71020996 30.01904297 48.17456055 30.60839844 C42.47503661 36.80518384 42.47503661 36.80518384 37.6875 37.4375 C30.92482027 36.63514817 27.436718 31.48596801 23.25 26.5703125 C20.24569747 23.13831412 17.12247114 19.8243163 14 16.5 C0 1.55978404 0 1.55978404 0 0 Z " fill="#FF5B08" transform="translate(284,247)"/>
<path d="M0 0 C2.24400681 1.08044772 4.22369394 2.16155673 6.25 3.625 C9.92522031 5.46261016 12.96148303 5.62005513 17 5 C20.74547604 3.27032287 20.74547604 3.27032287 23 0 C26.0547728 1.37189135 28.23171956 2.95277127 30.64453125 5.265625 C31.32193359 5.90886719 31.99933594 6.55210937 32.69726562 7.21484375 C33.74430664 8.22224609 33.74430664 8.22224609 34.8125 9.25 C38.8063988 13.06764224 42.78550776 16.8604971 47.01171875 20.421875 C47.99785156 21.27265625 48.98398437 22.1234375 50 23 C50 23.33 50 23.66 50 24 C25.58 24 1.16 24 -24 24 C-24 22 -24 22 -22.70703125 20.6953125 C-21.76923828 19.91800781 -21.76923828 19.91800781 -20.8125 19.125 C-16.84819705 15.75747383 -13.00423343 12.28241213 -9.1875 8.75 C-8.62458252 8.23066895 -8.06166504 7.71133789 -7.48168945 7.17626953 C-4.94265424 4.82744278 -2.41630904 2.47565698 0 0 Z " fill="#FF5B08" transform="translate(309,282)"/>
<path d="M0 0 C0.66 0 1.32 0 2 0 C2 17.49 2 34.98 2 53 C-1.39145307 51.30427347 -2.7940711 50.41745372 -5.25 47.8125 C-8.978887 43.97230294 -12.94425433 40.48840128 -17 37 C-18.50111215 35.68877212 -20.00114686 34.37630954 -21.5 33.0625 C-22.1703125 32.47597656 -22.840625 31.88945312 -23.53125 31.28515625 C-24.0159375 30.86105469 -24.500625 30.43695313 -25 30 C-23.68610661 27.11084945 -22.25929135 24.99483345 -20.05859375 22.71484375 C-19.47883789 22.10648682 -18.89908203 21.49812988 -18.30175781 20.87133789 C-17.68655273 20.23317139 -17.07134766 19.59500488 -16.4375 18.9375 C-11.21072935 13.44939081 -6.31458675 7.87428778 -1.671875 1.87890625 C-1.12015625 1.25886719 -0.5684375 0.63882813 0 0 Z " fill="#FF5F0F" transform="translate(361,250)"/>
<path d="M0 0 C2 0 2 0 3.234375 1.22265625 C3.73453125 1.82980469 4.2346875 2.43695313 4.75 3.0625 C9.03044934 8.11379297 13.56402121 12.91014434 18.11230469 17.71899414 C20.91952267 20.70310848 23.65120049 23.62998331 26 27 C24.66196542 30.00874098 23.22415624 31.98385643 20.8046875 34.20703125 C19.85940186 35.08270752 19.85940186 35.08270752 18.89501953 35.97607422 C18.22841309 36.58209473 17.56180664 37.18811523 16.875 37.8125 C16.19937012 38.43398926 15.52374023 39.05547852 14.82763672 39.69580078 C1.41396318 52 1.41396318 52 0 52 C0 34.84 0 17.68 0 0 Z " fill="#FF5B08" transform="translate(281,251)"/>
<path d="M0 0 C0.33 0 0.66 0 1 0 C0.67 4.29 0.34 8.58 0 13 C-0.66 13 -1.32 13 -2 13 C-2 14.98 -2 16.96 -2 19 C-2.66 19 -3.32 19 -4 19 C-4.04898438 19.67546875 -4.09796875 20.3509375 -4.1484375 21.046875 C-4.22320312 21.93890625 -4.29796875 22.8309375 -4.375 23.75 C-4.44460937 24.63171875 -4.51421875 25.5134375 -4.5859375 26.421875 C-5.00274406 29.01708568 -5.82957543 30.67795287 -7 33 C-7.38163039 36.42820517 -7.56820874 39.86358252 -6 43 C-7.32 42.34 -8.64 41.68 -10 41 C-10 37.84481149 -9.82500396 35.79617225 -9.08203125 32.83203125 C-8.88182373 32.02862305 -8.68161621 31.22521484 -8.4753418 30.39746094 C-8.256604 29.54442383 -8.03786621 28.69138672 -7.8125 27.8125 C-7.59053955 26.9349707 -7.3685791 26.05744141 -7.13989258 25.15332031 C-4.97586758 16.70411481 -2.53962329 8.34293269 0 0 Z " fill="#FFB295" transform="translate(179,345)"/>
<path d="M0 0 C3.875 0.875 3.875 0.875 5 2 C5.87793427 22.24413146 5.87793427 22.24413146 3 28 C4.32 28.66 5.64 29.32 7 30 C5.02 30 3.04 30 1 30 C1 28.02 1 26.04 1 24 C1.66 24 2.32 24 3 24 C2.88576707 20.93675381 2.75902148 17.87489086 2.625 14.8125 C2.5940625 13.94818359 2.563125 13.08386719 2.53125 12.19335938 C2.32654611 7.74104978 2.06277067 4.05007413 0 0 Z " fill="#FFB69A" transform="translate(365,240)"/>
<path d="M0 0 C0.33 0.66 0.66 1.32 1 2 C-3.60136502 7.53601728 -8.46398272 12.39863498 -14 17 C-14 12.72376632 -11.48040569 10.87832756 -8.6875 7.9375 C-8.18798828 7.39544922 -7.68847656 6.85339844 -7.17382812 6.29492188 C-4.89542888 3.85356427 -2.78981868 1.85987912 0 0 Z " fill="#FF9162" transform="translate(170,160)"/>
<path d="M0 0 C0.99 0.495 0.99 0.495 2 1 C2 1.66 2 2.32 2 3 C2.66 3 3.32 3 4 3 C4.33 4.65 4.66 6.3 5 8 C5.66 8 6.32 8 7 8 C7 9.32 7 10.64 7 12 C8.19625 11.505 9.3925 11.01 10.625 10.5 C14.21101476 9.14088765 17.13404799 8.7100536 21 9 C18.14415227 10.90389849 16.0688238 11.69462177 12.8125 12.625 C11.91144531 12.88539063 11.01039063 13.14578125 10.08203125 13.4140625 C9.05142578 13.70410156 9.05142578 13.70410156 8 14 C5.50447597 11.72402354 3.93377014 9.39278822 2.3125 6.4375 C1.87550781 5.65246094 1.43851562 4.86742187 0.98828125 4.05859375 C0 2 0 2 0 0 Z " fill="#FFA682" transform="translate(282,390)"/>
<path d="M0 0 C7.85131668 0.34740339 14.64925625 2.28451906 22 5 C18.42619658 6.19126781 16.49116698 5.7349445 12.8125 5.0625 C11.72582031 4.86785156 10.63914062 4.67320312 9.51953125 4.47265625 C8.27236328 4.23869141 8.27236328 4.23869141 7 4 C7 3.34 7 2.68 7 2 C5.02 2 3.04 2 1 2 C1 2.66 1 3.32 1 4 C0.34 4 -0.32 4 -1 4 C-0.67 2.68 -0.34 1.36 0 0 Z " fill="#FFA37E" transform="translate(112,169)"/>
<path d="M0 0 C0.99 0.33 1.98 0.66 3 1 C0.96192707 8.1178153 -1.40344742 15.06707281 -4 22 C-5.12758089 18.61725734 -4.81750262 17.23221777 -4.0625 13.8125 C-3.86785156 12.91144531 -3.67320312 12.01039063 -3.47265625 11.08203125 C-3.23869141 10.05142578 -3.23869141 10.05142578 -3 9 C-2.34 9 -1.68 9 -1 9 C-0.67 6.03 -0.34 3.06 0 0 Z " fill="#FFAE8F" transform="translate(402,286)"/>
<path d="M0 0 C0.66 0 1.32 0 2 0 C2 1.98 2 3.96 2 6 C2.66 6 3.32 6 4 6 C4.36504603 7.58086048 4.71660506 9.16483907 5.0625 10.75 C5.25972656 11.63171875 5.45695312 12.5134375 5.66015625 13.421875 C6.00298742 16.02266321 5.70340244 17.51848845 5 20 C3.96703956 17.04575985 2.95073045 14.08605927 1.9375 11.125 C1.64294922 10.28324219 1.34839844 9.44148438 1.04492188 8.57421875 C0.77099609 7.76855469 0.49707031 6.96289062 0.21484375 6.1328125 C-0.04176025 5.38918457 -0.29836426 4.64555664 -0.56274414 3.87939453 C-1 2 -1 2 0 0 Z " fill="#FFA784" transform="translate(97,288)"/>
<path d="M0 0 C0.66 0.33 1.32 0.66 2 1 C1.79375 1.71027344 1.5875 2.42054688 1.375 3.15234375 C0.92012391 6.60655905 1.65299482 8.37665551 3 11.5625 C5.40529931 17.2671737 5.40529931 17.2671737 4 21 C3.58427734 19.82630859 3.58427734 19.82630859 3.16015625 18.62890625 C2.79792969 17.61699219 2.43570312 16.60507812 2.0625 15.5625 C1.70285156 14.55316406 1.34320313 13.54382813 0.97265625 12.50390625 C0.23122361 10.09686255 0.23122361 10.09686255 -1 9 C-1.1328125 7.1875 -1.1328125 7.1875 -1.125 5 C-1.12757813 4.278125 -1.13015625 3.55625 -1.1328125 2.8125 C-1 1 -1 1 0 0 Z " fill="#FFAC8D" transform="translate(322,343)"/>
<path d="M0 0 C0.33 0 0.66 0 1 0 C0.67 4.29 0.34 8.58 0 13 C-0.66 13 -1.32 13 -2 13 C-2 14.98 -2 16.96 -2 19 C-2.33 19 -2.66 19 -3 19 C-3.38614349 12.1781317 -2.00865708 6.50422293 0 0 Z " fill="#FFA17C" transform="translate(179,345)"/>
<path d="M0 0 C0.66 0.33 1.32 0.66 2 1 C1.01 1.33 0.02 1.66 -1 2 C-0.84402344 2.74765625 -0.68804687 3.4953125 -0.52734375 4.265625 C-0.33269531 5.25046875 -0.13804687 6.2353125 0.0625 7.25 C0.25972656 8.22453125 0.45695313 9.1990625 0.66015625 10.203125 C1 13 1 13 0 17 C-1.32 12.71 -2.64 8.42 -4 4 C-2.68 2.68 -1.36 1.36 0 0 Z " fill="#FFB294" transform="translate(168,112)"/>
<path d="M0 0 C0.33 0 0.66 0 1 0 C1.0270043 1.45823212 1.04639787 2.91660675 1.0625 4.375 C1.07410156 5.18710937 1.08570313 5.99921875 1.09765625 6.8359375 C1 9 1 9 0 11 C1.32 11.66 2.64 12.32 4 13 C2.02 13 0.04 13 -2 13 C-2 11.02 -2 9.04 -2 7 C-1.34 7 -0.68 7 0 7 C0 4.69 0 2.38 0 0 Z " fill="#FFA37D" transform="translate(368,257)"/>
<path d="M0 0 C2.97 0 5.94 0 9 0 C9 1.32 9 2.64 9 4 C9.66 4.33 10.32 4.66 11 5 C10.67 6.32 10.34 7.64 10 9 C9.46375 7.865625 8.9275 6.73125 8.375 5.5625 C6.63257149 2.45370668 6.37723731 2.10881846 2.75 1.0625 C1.38875 1.0315625 1.38875 1.0315625 0 1 C0 0.67 0 0.34 0 0 Z " fill="#FFAC8C" transform="translate(263,367)"/>
<path d="M0 0 C1.17539996 0.92652701 2.34010577 1.86663387 3.5 2.8125 C4.1496875 3.33457031 4.799375 3.85664063 5.46875 4.39453125 C7 6 7 6 7 9 C6.01 9.33 5.02 9.66 4 10 C3.566875 8.63875 3.566875 8.63875 3.125 7.25 C2.23158284 4.66901709 1.24772883 2.41157674 0 0 Z " fill="#FFAA8A" transform="translate(334,165)"/>
<path d="M0 0 C2.18975773 3.28463659 2.99806563 6.20696275 4 10 C2.68 9.34 1.36 8.68 0 8 C0 5.36 0 2.72 0 0 Z " fill="#FFA079" transform="translate(194,266)"/>
</svg>
